<?xml version="1.0" standalone="no"?>
<!DOCTYPE svg PUBLIC "-//W3C//DTD SVG 20010904//EN"
 "http://www.w3.org/TR/2001/REC-SVG-20010904/DTD/svg10.dtd">
<svg version="1.0" xmlns="http://www.w3.org/2000/svg"
 width="500.000000pt" height="500.000000pt" viewBox="0 0 500.000000 500.000000"
 preserveAspectRatio="xMidYMid meet">

<g transform="translate(0.000000,500.000000) scale(0.100000,-0.100000)"
fill="#000000" stroke="none">
<path d="M2462 4428 c3 -38 6 -43 28 -45 14 -1 18 0 8 3 -10 3 -18 12 -18 19
0 7 8 16 18 18 16 4 16 5 0 6 -10 0 -18 7 -18 15 0 8 8 17 18 19 10 3 6 5 -11
6 -27 1 -28 -1 -25 -41z"/>
<path d="M2370 4420 c0 -36 3 -40 25 -40 31 0 50 32 35 60 -6 12 -21 20 -35
20 -22 0 -25 -4 -25 -40z m48 6 c4 -17 -13 -45 -21 -35 -2 2 -7 17 -11 32 -6
24 -4 28 11 25 10 -2 19 -12 21 -22z"/>
<path d="M2581 4443 c0 -11 3 -13 6 -5 6 16 33 15 33 -2 0 -7 -12 -21 -26 -31
-21 -13 -24 -19 -13 -26 19 -12 39 -11 39 1 0 6 -8 10 -17 10 -16 1 -15 2 2
12 26 15 34 28 28 45 -8 20 -53 17 -52 -4z"/>
<path d="M2287 4443 c-15 -14 -6 -33 18 -39 29 -7 28 -31 -1 -26 -16 3 -17 1
-6 -9 9 -10 17 -11 30 -3 24 16 21 38 -5 42 -13 2 -23 10 -23 19 0 10 6 14 20
10 11 -3 18 -1 14 4 -6 10 -38 12 -47 2z"/>
<path d="M2662 4428 c-18 -18 -15 -65 5 -73 22 -8 55 30 51 59 -3 24 -37 33
-56 14z m38 -22 c0 -30 -27 -55 -36 -33 -6 17 12 57 26 57 6 0 10 -11 10 -24z"/>
<path d="M2213 4422 c-10 -6 -10 -16 -1 -45 12 -38 23 -44 48 -26 13 9 13 10
-2 6 -19 -6 -33 19 -15 27 7 2 4 5 -5 5 -10 1 -18 7 -18 15 0 8 8 17 18 19 12
3 13 5 2 6 -8 0 -20 -3 -27 -7z"/>
<path d="M2742 4398 c-10 -13 -15 -33 -13 -55 0 -7 12 -13 26 -13 18 0 28 7
36 27 5 14 8 32 5 40 -7 17 -40 17 -54 1z m38 -12 c0 -25 -12 -46 -26 -46 -17
0 -18 14 -4 41 12 22 30 25 30 5z"/>
<path d="M2133 4387 l-22 -10 20 -39 c17 -32 22 -37 38 -28 24 12 30 30 21 56
-10 27 -29 34 -57 21z m41 -29 c8 -13 7 -21 -1 -29 -8 -8 -15 -3 -28 21 -15
30 -15 32 1 28 9 -1 22 -11 28 -20z"/>
<path d="M2816 4352 c-9 -18 -15 -39 -13 -45 2 -7 12 3 21 21 9 18 15 39 13
45 -2 7 -12 -3 -21 -21z"/>
<path d="M2395 4197 c-123 -41 -215 -112 -286 -220 -28 -44 -50 -65 -88 -84
-102 -50 -133 -159 -59 -211 10 -7 18 -25 18 -41 0 -15 5 -32 11 -38 7 -7 1
-23 -21 -56 -36 -49 -48 -115 -31 -159 14 -37 56 -62 114 -68 l49 -5 24 -59
c13 -33 22 -61 20 -63 -2 -2 -45 16 -94 41 -213 107 -413 116 -533 23 -65 -50
-102 -124 -107 -217 -4 -70 -7 -79 -28 -89 -55 -25 -57 -107 -4 -118 17 -3 30
-7 30 -8 0 -1 -7 -19 -15 -38 -44 -106 25 -253 129 -272 37 -7 89 14 99 40 4
9 19 15 42 15 26 0 43 7 60 26 29 32 37 40 69 69 32 29 34 67 6 113 -11 18
-20 44 -20 58 0 15 -12 38 -30 56 -29 28 -35 30 -90 26 l-59 -4 6 27 c6 34
-26 69 -63 69 -26 0 -27 1 -20 47 9 65 34 104 86 131 52 26 120 29 202 7 82
-21 228 -86 327 -146 l87 -53 97 -250 c54 -138 97 -257 97 -265 0 -7 -46 -59
-102 -115 -78 -78 -120 -111 -171 -136 -112 -55 -214 -52 -301 8 -55 38 -65
56 -42 81 10 11 21 41 24 66 4 39 1 50 -19 71 -22 24 -29 26 -83 21 -87 -8
-202 -69 -299 -158 -124 -114 -160 -202 -101 -248 55 -43 167 -21 289 59 l64
41 52 -41 c78 -62 125 -82 201 -88 146 -10 342 87 495 247 l51 54 16 -37 c24
-57 46 -45 76 42 14 39 27 72 30 72 3 0 33 -23 65 -51 171 -146 458 -346 560
-390 l55 -24 0 -47 c0 -97 45 -134 125 -103 118 45 243 194 305 364 26 70 24
139 -5 171 -58 64 -239 -42 -332 -192 -20 -32 -38 -58 -40 -58 -10 0 -115 57
-183 100 -92 56 -331 232 -420 308 -36 31 -69 59 -73 63 -7 5 118 384 182 552
l11 28 43 -25 c60 -35 161 -59 222 -53 136 14 269 112 315 232 32 83 38 226
15 330 -16 75 -16 77 3 98 11 12 22 29 23 37 5 26 -11 59 -32 65 -27 9 -24 16
17 49 87 69 103 231 28 281 -16 10 -47 15 -91 15 -38 0 -81 0 -97 0 -15 0 -33
-3 -40 -8 -6 -5 -28 -12 -48 -16 -51 -9 -82 -49 -74 -96 3 -22 0 -42 -9 -54
-25 -33 -18 -88 15 -135 17 -23 41 -47 55 -53 20 -9 22 -14 14 -35 -16 -42 29
-93 82 -93 23 0 27 -6 40 -57 45 -185 -11 -347 -141 -406 -65 -29 -188 -30
-252 0 -53 24 -55 29 -32 88 l15 41 77 -1 c64 0 83 4 116 24 96 60 100 172 7
227 -30 17 -31 21 -31 84 -1 224 -132 422 -337 505 -57 23 -86 29 -178 32 -95
3 -120 0 -180 -20z m287 -16 l23 -9 -28 -11 c-16 -6 -34 -11 -42 -11 -14 0
-30 -18 -23 -25 2 -2 34 5 71 16 61 18 69 19 96 4 l30 -15 -14 -41 c-18 -49
-18 -59 -5 -59 5 0 15 18 21 40 7 22 18 40 25 40 26 0 131 -110 163 -169 47
-88 64 -155 66 -255 1 -76 4 -89 21 -98 142 -76 84 -218 -88 -218 -41 0 -78 7
-107 20 -62 29 -73 27 -67 -12 16 -100 11 -142 -25 -183 -24 -27 -39 -35 -65
-35 -54 0 -82 19 -99 66 -8 24 -22 65 -31 90 -17 49 -48 84 -73 84 -9 -1 -36
-5 -61 -10 -31 -6 -68 -4 -120 6 -105 20 -128 18 -193 -16 -71 -37 -102 -43
-145 -29 -46 15 -67 64 -52 119 13 48 64 110 91 110 10 0 19 5 19 10 0 6 -6
10 -13 10 -7 0 -23 7 -35 16 -22 15 -22 17 -7 34 18 20 13 40 -11 40 -27 0
-54 38 -54 76 0 29 7 44 35 70 19 18 50 38 69 45 23 8 42 26 57 53 27 50 97
136 110 136 5 0 6 -12 3 -26 -5 -20 -3 -25 7 -22 8 2 16 22 19 43 5 35 11 41
65 71 79 44 92 43 60 -3 -14 -21 -25 -41 -25 -45 0 -20 20 -3 55 47 41 59 52
64 96 38 15 -9 32 -13 36 -9 4 5 2 11 -4 13 -7 3 -13 9 -13 15 0 12 123 4 162
-11z m658 -35 c0 -1 -5 -17 -11 -34 -9 -25 -16 -31 -50 -34 -32 -3 -39 0 -39
14 0 28 37 58 70 58 17 0 30 -2 30 -4z m141 -25 c25 -25 29 -37 29 -83 0 -69
-31 -124 -92 -163 -48 -31 -61 -55 -30 -55 29 0 63 -30 60 -52 -8 -51 -129
-87 -188 -56 -30 16 -38 59 -16 78 23 18 20 30 -8 30 -47 0 -106 69 -106 126
0 61 107 122 193 111 43 -6 78 -32 71 -52 -9 -22 -66 -40 -126 -38 -57 1 -76
-10 -38 -22 11 -3 33 -20 50 -37 35 -34 51 -31 27 6 -15 22 -15 24 3 29 11 3
25 -2 31 -10 8 -9 26 -13 48 -11 30 3 39 9 52 38 9 19 20 55 23 80 5 39 4 43
-8 27 -7 -9 -16 -35 -20 -56 -7 -45 -28 -71 -57 -71 -25 0 -25 17 1 25 11 3
25 15 31 26 13 25 -10 65 -47 79 -30 12 -30 25 1 55 34 35 78 33 116 -4z
m-261 -18 c0 -24 -10 -38 -36 -51 -38 -20 -47 15 -14 48 25 25 50 26 50 3z
m199 -450 c7 -21 15 -84 18 -139 5 -86 3 -112 -16 -172 -12 -39 -36 -90 -54
-114 -71 -93 -214 -158 -316 -143 -25 4 -79 20 -119 37 -73 30 -74 31 -68 61
3 17 8 32 10 34 1 2 25 -6 52 -18 27 -12 78 -24 115 -27 181 -13 313 104 327
290 4 59 -8 161 -24 203 -5 12 9 18 52 24 6 0 16 -16 23 -36z m-1169 -272 c0
-6 -43 -91 -55 -109 -6 -8 -55 20 -64 37 -9 17 -5 23 37 50 47 29 82 39 82 22z
m133 -17 c26 -4 47 -8 47 -9 0 -11 -60 -135 -66 -135 -3 0 -37 9 -75 21 l-68
21 30 60 c28 55 32 60 57 54 15 -3 48 -9 75 -12z m160 2 c4 -10 0 -12 -15 -8
-15 4 -17 7 -6 13 17 11 15 11 21 -5z m339 2 c15 -12 15 -16 -2 -48 -18 -33
-19 -33 -20 -10 0 14 -3 35 -6 48 -7 25 4 28 28 10z m-330 -43 c22 -4 30 -14
42 -53 13 -43 12 -50 -6 -83 l-20 -36 -77 23 c-42 13 -82 26 -89 29 -9 3 -3
24 22 74 l35 69 33 -8 c18 -5 45 -12 60 -15z m-679 -45 c66 -16 208 -79 275
-121 18 -11 68 -119 56 -119 -3 0 -41 20 -84 45 -185 105 -320 149 -435 143
-61 -3 -78 -8 -110 -32 -44 -34 -74 -95 -75 -153 0 -37 -3 -42 -31 -52 -18 -6
-34 -11 -37 -11 -3 0 -2 28 0 63 8 95 56 180 123 215 88 46 197 54 318 22z
m299 -52 c-9 -9 -12 -7 -12 12 0 19 3 21 12 12 9 -9 9 -15 0 -24z m109 -9 c35
-12 66 -24 68 -26 7 -5 -61 -143 -70 -143 -35 0 -58 23 -78 77 -19 50 -20 64
-10 86 7 15 15 27 19 27 3 0 35 -10 71 -21z m269 -87 c4 -3 -71 -152 -77 -152
-7 0 -149 54 -155 59 -4 3 8 38 27 78 l33 72 84 -27 c45 -14 85 -28 88 -30z
m146 2 c13 -3 40 -3 59 0 37 7 43 0 23 -27 -12 -15 -19 -15 -95 9 -83 25 -88
29 -77 58 5 14 11 12 36 -9 16 -14 40 -28 54 -31z m-30 -36 c42 -13 78 -28 81
-34 4 -10 -62 -154 -70 -154 -3 0 -137 45 -165 55 -8 3 -1 26 25 80 21 41 41
75 45 75 5 0 43 -10 84 -22z m99 -125 c-33 -92 -30 -87 -50 -79 -13 5 -9 19
25 87 23 45 44 78 47 75 3 -3 -7 -41 -22 -83z m-495 48 c0 -17 -18 -21 -24 -6
-3 9 0 15 9 15 8 0 15 -4 15 -9z m120 -37 c39 -15 69 -29 68 -33 -2 -3 -20
-39 -41 -78 l-37 -73 -32 13 c-25 10 -36 24 -55 77 -20 54 -22 68 -12 92 14
34 20 35 109 2z m-816 -10 c22 -22 20 -31 -14 -66 -17 -17 -29 -32 -26 -35 2
-2 28 3 57 11 29 9 66 16 81 16 59 0 94 -39 83 -90 l-6 -29 -34 21 c-19 11
-40 18 -47 15 -8 -2 3 -14 25 -27 21 -12 44 -35 53 -51 19 -37 28 -37 21 1 -4
16 -3 32 2 34 13 8 34 -50 26 -73 -17 -55 -89 -46 -162 22 -25 23 -43 34 -43
25 0 -21 59 -75 103 -93 42 -17 44 -21 20 -47 -36 -40 -125 -8 -168 59 -11 18
-26 32 -33 33 -21 0 13 -54 58 -92 37 -33 39 -36 22 -50 -27 -23 -50 -28 -80
-17 -39 15 -72 48 -93 94 -24 52 -23 99 1 154 26 55 25 61 -4 61 -63 0 -73 30
-27 74 28 27 117 65 153 66 9 0 24 -7 32 -16z m1009 -59 c42 -15 77 -31 77
-36 0 -9 -67 -149 -76 -158 -2 -3 -30 6 -62 19 -31 13 -72 30 -90 37 l-33 14
43 79 c24 44 48 78 53 76 6 -3 45 -16 88 -31z m137 -58 c0 -6 -12 -46 -27 -89
-28 -78 -40 -89 -73 -68 -13 8 -8 22 27 94 32 63 47 84 58 80 8 -4 15 -11 15
-17z m-360 -88 c0 -5 -4 -9 -10 -9 -5 0 -10 7 -10 16 0 8 5 12 10 9 6 -3 10
-10 10 -16z m140 -44 c77 -32 72 -28 64 -48 -5 -15 -9 -15 -31 3 -53 41 -109
11 -101 -55 7 -59 -19 -42 -50 33 -20 49 -20 56 -7 83 17 32 9 33 125 -16z
m108 -146 c119 -113 383 -315 521 -399 82 -50 90 -58 91 -86 0 -18 -8 -41 -17
-53 l-18 -22 -75 48 c-204 129 -409 291 -552 435 -74 74 -108 115 -108 131 0
26 17 47 37 47 7 0 62 -46 121 -101z m27 87 c17 -12 17 -17 5 -45 l-13 -32
-28 27 c-22 21 -26 31 -18 45 12 22 28 24 54 5z m-172 -117 c12 -7 23 -13 25
-14 2 -2 -4 -17 -13 -35 -9 -18 -18 -30 -19 -28 -2 1 -10 22 -19 46 -18 44
-12 51 26 31z m85 -72 l32 -33 -24 -68 c-14 -38 -27 -70 -29 -73 -3 -2 -17 27
-31 65 -26 68 -26 70 -10 106 10 20 20 36 24 36 3 0 21 -15 38 -33z m-96 -66
c15 -37 15 -39 -16 -79 -67 -89 -203 -188 -320 -233 -65 -26 -97 -32 -161 -33
-72 -1 -85 2 -135 30 -47 27 -55 36 -53 59 2 30 29 65 49 65 7 0 35 -12 61
-26 43 -23 57 -25 125 -22 64 4 90 11 150 41 75 37 193 133 243 200 16 20 32
37 35 37 4 0 14 -17 22 -39z m-645 -25 c-3 -19 -16 -49 -28 -65 l-23 -31 22
-23 22 -24 -21 -19 c-12 -10 -25 -30 -30 -43 l-10 -24 -27 26 c-24 23 -29 24
-46 11 -29 -21 -36 -17 -36 20 0 19 -5 38 -11 41 -7 5 -10 -9 -8 -42 4 -78
-24 -104 -36 -33 -10 59 -28 51 -20 -9 6 -41 4 -51 -12 -59 -16 -9 -19 -4 -29
41 -7 29 -15 62 -19 73 -6 18 4 28 62 67 66 44 227 127 246 127 5 0 7 -15 4
-34z m1778 -232 c19 -11 19 -13 -16 -65 -97 -147 -197 -244 -244 -237 -17 3
-20 11 -23 59 -3 55 -3 56 -48 77 -43 21 -44 23 -29 44 8 12 15 30 15 40 0 28
17 30 59 8 22 -11 43 -20 45 -20 3 0 12 13 21 30 l15 30 33 -20 c36 -22 47
-25 47 -10 0 5 -13 16 -30 25 -33 17 -37 31 -16 58 13 17 16 16 50 -14 48 -42
62 -27 15 16 -36 33 -36 33 -17 52 19 19 19 19 61 -21 23 -23 51 -46 62 -52z"/>
<path d="M2456 4057 c-28 -36 -32 -47 -17 -47 14 0 62 68 52 75 -5 3 -21 -10
-35 -28z"/>
<path d="M2623 4063 c-40 -13 -73 -29 -73 -34 0 -5 5 -9 12 -9 19 0 158 55
158 63 0 11 -19 7 -97 -20z"/>
<path d="M2300 3999 c-64 -35 -81 -49 -59 -49 21 0 129 59 129 71 0 14 -11 11
-70 -22z"/>
<path d="M2855 4020 c3 -5 17 -10 31 -10 13 0 24 5 24 10 0 6 -14 10 -31 10
-17 0 -28 -4 -24 -10z"/>
<path d="M2499 3924 c-11 -14 -11 -18 4 -29 23 -16 22 -51 -2 -67 -21 -15 -17
-31 11 -41 35 -13 71 63 56 121 -7 24 -14 32 -32 32 -13 0 -30 -7 -37 -16z"/>
<path d="M2632 3924 c-7 -12 -4 -22 9 -35 24 -24 24 -34 -3 -59 -22 -21 -22
-22 -5 -35 26 -19 42 -10 63 33 24 51 10 106 -28 110 -17 2 -30 -3 -36 -14z"/>
<path d="M2770 3861 c-5 -11 -10 -28 -10 -39 0 -11 -18 -38 -40 -60 -48 -50
-126 -77 -195 -67 -50 8 -139 60 -130 76 10 15 -4 79 -17 79 -6 0 -8 -12 -4
-31 8 -43 -17 -88 -54 -96 -17 -3 -30 -9 -30 -14 0 -14 28 -11 63 7 22 12 32
13 35 5 2 -6 18 -33 35 -59 86 -127 245 -122 311 10 14 28 26 60 26 71 0 17 3
16 31 -7 30 -25 69 -35 69 -17 0 5 -11 12 -25 15 -48 12 -66 69 -40 129 10 24
-12 22 -25 -2z m-105 -203 c31 -14 31 -18 -3 -43 -48 -36 -182 -21 -145 16 10
10 88 36 115 38 4 1 19 -4 33 -11z"/>
<path d="M2110 3575 c0 -31 96 -48 275 -50 94 -1 211 -8 260 -15 96 -14 165
-8 165 15 0 11 -7 11 -35 4 -24 -7 -60 -6 -113 2 -42 7 -151 13 -242 14 -153
1 -217 9 -284 35 -21 7 -26 7 -26 -5z"/>
<path d="M2940 3570 c-30 -9 -56 -22 -58 -29 -5 -15 6 -14 74 9 106 37 92 55
-16 20z"/>
<path d="M1830 4113 c-59 -22 -84 -110 -38 -134 36 -19 123 -16 147 5 22 20
28 65 11 96 -15 29 -81 47 -120 33z m84 -34 c27 -22 34 -57 14 -77 -12 -12
-95 -16 -122 -6 -9 4 -16 18 -16 34 0 33 40 70 75 70 12 0 34 -9 49 -21z"/>
<path d="M1359 3959 c-30 -11 -50 -48 -42 -77 8 -31 96 -41 131 -15 35 26 37
37 10 66 -27 29 -63 39 -99 26z m79 -31 c17 -17 15 -45 -4 -52 -29 -11 -94 5
-94 23 0 26 21 41 55 41 17 0 36 -5 43 -12z"/>
<path d="M1701 3855 c-18 -8 -60 -15 -93 -15 -52 0 -63 -3 -89 -29 -62 -63
-13 -152 75 -136 21 4 57 -1 99 -14 51 -16 73 -18 101 -10 62 17 97 92 72 153
-26 63 -90 83 -165 51z m129 -27 c30 -33 28 -101 -5 -134 -21 -21 -34 -25 -68
-23 -23 2 -56 9 -74 16 -18 7 -57 13 -87 13 -47 0 -58 4 -71 24 -12 17 -13 30
-6 49 14 35 40 47 108 47 32 1 72 7 88 15 46 21 91 18 115 -7z"/>
<path d="M1840 1770 c-71 -18 -132 -51 -183 -99 -73 -69 -101 -127 -105 -222
-4 -73 -3 -77 28 -112 54 -62 147 -62 207 -2 38 38 43 75 13 105 -39 39 -17
120 41 154 33 19 109 30 127 18 17 -11 -85 -268 -133 -334 -45 -61 -127 -103
-187 -95 -53 7 -90 35 -103 76 -8 28 -13 31 -35 26 -68 -17 -110 -81 -110
-166 0 -120 72 -188 205 -197 144 -9 244 56 318 208 47 97 187 505 187 547 0
22 -10 43 -29 65 -29 32 -32 33 -118 35 -48 1 -104 -2 -123 -7z"/>
<path d="M2416 1765 c-249 -63 -402 -292 -282 -422 58 -64 172 -52 217 21 24
40 24 68 -1 84 -13 8 -20 23 -20 45 0 81 80 137 206 145 137 9 217 -36 217
-120 0 -83 -52 -141 -128 -142 -37 -1 -40 1 -43 27 -2 16 4 49 12 74 24 69 21
91 -11 99 -51 13 -73 -11 -122 -136 -74 -184 -137 -255 -227 -255 -47 0 -72
17 -91 63 -12 28 -17 31 -41 26 -72 -18 -116 -83 -116 -174 -1 -110 54 -172
160 -178 129 -8 247 82 330 253 39 80 50 95 70 95 32 0 43 -24 53 -129 14
-133 42 -174 121 -174 51 0 110 34 164 94 39 43 47 48 52 33 19 -58 30 -77 69
-113 52 -48 108 -65 195 -59 140 10 236 105 248 244 6 77 -7 117 -71 222 -74
122 -77 197 -9 223 18 7 31 5 49 -6 22 -15 24 -22 21 -73 -4 -68 12 -77 61
-36 44 37 63 78 63 137 -1 55 -17 85 -66 121 -42 32 -176 30 -228 -2 -106 -66
-114 -195 -22 -353 21 -35 39 -81 42 -105 4 -38 1 -47 -26 -74 -42 -41 -92
-42 -133 -1 -35 36 -38 81 -9 129 24 39 19 52 -21 52 -71 0 -139 -56 -159
-130 -13 -50 -51 -80 -100 -80 -33 0 -43 6 -84 54 -25 30 -43 57 -39 59 5 3
26 10 48 16 22 6 54 20 72 30 69 43 108 166 83 261 -15 57 -79 121 -146 145
-68 24 -277 30 -358 10z"/>
<path d="M1806 724 c-21 -20 -20 -48 0 -69 22 -21 48 -15 52 13 3 16 -2 22
-15 21 -10 0 -13 -3 -5 -6 19 -8 14 -23 -8 -23 -16 0 -20 7 -20 31 0 28 2 31
25 25 27 -7 35 8 9 18 -21 8 -20 8 -38 -10z"/>
<path d="M1890 690 c0 -47 2 -50 26 -50 14 0 23 4 19 10 -4 6 -11 8 -16 5 -5
-4 -9 0 -9 9 0 8 6 17 13 19 10 4 10 6 0 6 -19 1 -16 31 3 31 8 0 12 5 9 10
-3 6 -15 10 -26 10 -16 0 -19 -7 -19 -50z"/>
<path d="M2052 728 c-7 -7 -12 -27 -12 -46 0 -31 2 -33 16 -21 14 11 18 10 30
-6 13 -17 14 -15 14 21 0 36 -13 64 -30 64 -3 0 -11 -5 -18 -12z m31 -28 c4
-15 0 -20 -14 -20 -21 0 -22 1 -13 24 8 22 21 20 27 -4z"/>
<path d="M2130 730 c0 -5 5 -10 10 -10 6 0 10 -16 10 -35 0 -19 5 -35 10 -35
6 0 10 16 10 35 0 19 5 35 10 35 6 0 10 5 10 10 0 6 -13 10 -30 10 -16 0 -30
-4 -30 -10z"/>
<path d="M2233 732 c-12 -8 -18 -31 -15 -64 2 -22 39 -33 57 -18 22 18 19 67
-4 80 -23 12 -23 12 -38 2z m37 -41 c0 -34 -9 -44 -27 -30 -16 14 -17 41 -1
57 16 16 28 5 28 -27z"/>
<path d="M2319 724 c-11 -14 -11 -18 6 -30 10 -8 23 -14 28 -14 5 0 7 -6 4
-12 -2 -7 -15 -12 -28 -11 l-24 3 22 -12 c17 -8 26 -8 38 2 21 18 19 29 -10
40 -14 5 -25 13 -25 18 0 17 13 22 28 9 13 -10 14 -9 10 3 -7 21 -32 24 -49 4z"/>
<path d="M2501 731 c-8 -5 -14 -24 -14 -41 0 -33 17 -52 42 -47 24 4 23 24 -1
23 -17 -1 -24 5 -26 22 -4 26 25 42 39 21 7 -11 9 -11 9 2 0 9 -7 20 -16 23
-19 7 -16 8 -33 -3z"/>
<path d="M2580 690 c0 -47 2 -50 26 -50 14 0 23 4 19 10 -4 6 -11 8 -16 5 -5
-4 -9 0 -9 9 0 8 6 17 13 19 10 4 10 6 0 6 -19 1 -16 31 3 31 8 0 12 5 9 10
-3 6 -15 10 -26 10 -16 0 -19 -7 -19 -50z"/>
<path d="M2706 724 c-9 -8 -16 -24 -16 -34 0 -10 7 -26 16 -34 18 -18 17 -18
38 -10 26 10 18 25 -9 18 -23 -6 -25 -3 -25 25 0 32 16 41 38 19 9 -9 12 -8
12 4 0 9 -7 19 -16 22 -21 8 -20 8 -38 -10z"/>
<path d="M2790 689 c0 -31 4 -48 10 -44 6 3 10 13 10 21 0 21 18 17 25 -6 4
-11 11 -18 16 -15 5 4 5 13 -1 24 -6 12 -5 22 3 30 9 10 8 15 -7 27 -11 8 -28
14 -38 14 -15 0 -18 -8 -18 -51z m48 19 c-6 -18 -28 -21 -28 -4 0 9 7 16 16
16 9 0 14 -5 12 -12z"/>
<path d="M2890 690 c0 -47 1 -50 27 -50 14 0 23 3 19 8 -4 4 -13 7 -18 7 -6 0
-13 6 -15 13 -3 6 4 12 14 12 17 1 17 1 1 11 -22 12 -23 29 -3 29 8 0 15 5 15
10 0 6 -9 10 -20 10 -17 0 -20 -7 -20 -50z"/>
<path d="M2983 732 c-16 -10 -28 -82 -14 -82 6 0 11 5 11 10 0 6 7 10 15 10 8
0 15 -4 15 -10 0 -5 5 -10 10 -10 16 0 12 57 -6 74 -18 18 -16 18 -31 8z m27
-32 c0 -11 -7 -20 -15 -20 -8 0 -15 9 -15 20 0 11 7 20 15 20 8 0 15 -9 15
-20z"/>
<path d="M3061 693 c2 -46 2 -47 9 -13 l6 35 8 -27 c5 -16 12 -28 16 -28 5 0
13 12 18 28 l10 27 1 -32 c1 -51 21 -50 21 1 0 52 -12 65 -33 35 l-15 -21 -11
21 c-19 35 -31 24 -30 -26z"/>
<path d="M1970 690 c0 -39 21 -64 38 -45 4 4 1 10 -5 12 -7 3 -13 20 -13 39 0
19 -4 34 -10 34 -5 0 -10 -18 -10 -40z"/>
<path d="M2440 684 c0 -27 4 -43 10 -39 6 3 10 24 10 46 0 21 -4 39 -10 39 -5
0 -10 -21 -10 -46z"/>
</g>
</svg>
